<mxfile host="app.diagrams.net" modified="2023-10-17T12:16:12.383Z" agent="Mozilla/5.0 (Windows NT 10.0; Win64; x64; rv:109.0) Gecko/20100101 Firefox/118.0" etag="mwKSDav4iQvEmXUVBMxk" version="22.0.0" type="device">
  <diagram name="Seite-1" id="LI_FiQtw2HTBItlRKg6N">
    <mxGraphModel dx="1434" dy="754" grid="1" gridSize="10" guides="1" tooltips="1" connect="1" arrows="1" fold="1" page="1" pageScale="1" pageWidth="827" pageHeight="1169" math="0" shadow="0">
      <root>
        <mxCell id="0" />
        <mxCell id="1" parent="0" />
        <mxCell id="IOTHJntcrpDSe6gjznaF-21" style="edgeStyle=orthogonalEdgeStyle;rounded=0;orthogonalLoop=1;jettySize=auto;html=1;exitX=1;exitY=0.5;exitDx=0;exitDy=0;entryX=0;entryY=0.5;entryDx=0;entryDy=0;shape=flexArrow;fillColor=#dae8fc;strokeColor=#000000;" edge="1" parent="1" source="IOTHJntcrpDSe6gjznaF-1" target="IOTHJntcrpDSe6gjznaF-2">
          <mxGeometry relative="1" as="geometry" />
        </mxCell>
        <mxCell id="IOTHJntcrpDSe6gjznaF-1" value="&lt;font size=&quot;1&quot;&gt;&lt;b style=&quot;font-size: 14px;&quot;&gt;Generierung des Terrains&lt;/b&gt;&lt;/font&gt;" style="rounded=1;whiteSpace=wrap;html=1;fillColor=#dae8fc;strokeColor=#000000;" vertex="1" parent="1">
          <mxGeometry x="40" y="200" width="120" height="60" as="geometry" />
        </mxCell>
        <mxCell id="IOTHJntcrpDSe6gjznaF-19" style="edgeStyle=orthogonalEdgeStyle;rounded=0;orthogonalLoop=1;jettySize=auto;html=1;exitX=1;exitY=0.5;exitDx=0;exitDy=0;entryX=0;entryY=0.5;entryDx=0;entryDy=0;shape=flexArrow;fillColor=#dae8fc;strokeColor=#000000;" edge="1" parent="1" source="IOTHJntcrpDSe6gjznaF-2" target="IOTHJntcrpDSe6gjznaF-4">
          <mxGeometry relative="1" as="geometry" />
        </mxCell>
        <mxCell id="IOTHJntcrpDSe6gjznaF-2" value="&lt;font size=&quot;1&quot;&gt;&lt;b style=&quot;font-size: 14px;&quot;&gt;Generierung&amp;nbsp; der Biome&lt;/b&gt;&lt;/font&gt;" style="rounded=1;whiteSpace=wrap;html=1;fillColor=#dae8fc;strokeColor=#000000;" vertex="1" parent="1">
          <mxGeometry x="200" y="200" width="120" height="60" as="geometry" />
        </mxCell>
        <mxCell id="IOTHJntcrpDSe6gjznaF-22" style="edgeStyle=orthogonalEdgeStyle;rounded=0;orthogonalLoop=1;jettySize=auto;html=1;exitX=1;exitY=0.5;exitDx=0;exitDy=0;entryX=0;entryY=0.5;entryDx=0;entryDy=0;shape=flexArrow;fillColor=#dae8fc;strokeColor=#000000;" edge="1" parent="1" source="IOTHJntcrpDSe6gjznaF-6" target="IOTHJntcrpDSe6gjznaF-8">
          <mxGeometry relative="1" as="geometry" />
        </mxCell>
        <mxCell id="IOTHJntcrpDSe6gjznaF-6" value="&lt;font size=&quot;1&quot;&gt;&lt;b style=&quot;font-size: 14px;&quot;&gt;Generierung der Vegetation&lt;/b&gt;&lt;/font&gt;" style="whiteSpace=wrap;html=1;rounded=1;fillColor=#dae8fc;strokeColor=#000000;" vertex="1" parent="1">
          <mxGeometry x="520" y="200" width="130" height="60" as="geometry" />
        </mxCell>
        <mxCell id="IOTHJntcrpDSe6gjznaF-8" value="&lt;font style=&quot;font-size: 14px;&quot;&gt;&lt;b&gt;Generierung&lt;/b&gt;&lt;b&gt; &lt;/b&gt;&lt;b&gt;von Siedlungsstrukturen&lt;/b&gt;&lt;/font&gt;" style="whiteSpace=wrap;html=1;rounded=1;fillColor=#dae8fc;strokeColor=#000000;" vertex="1" parent="1">
          <mxGeometry x="690" y="200" width="150" height="60" as="geometry" />
        </mxCell>
        <mxCell id="IOTHJntcrpDSe6gjznaF-14" value="" style="endArrow=classic;html=1;rounded=0;exitX=0.5;exitY=0;exitDx=0;exitDy=0;entryX=0.5;entryY=0;entryDx=0;entryDy=0;strokeWidth=2;dashed=1;fillColor=#dae8fc;strokeColor=#000000;" edge="1" parent="1" source="IOTHJntcrpDSe6gjznaF-8" target="IOTHJntcrpDSe6gjznaF-1">
          <mxGeometry width="50" height="50" relative="1" as="geometry">
            <mxPoint x="390" y="410" as="sourcePoint" />
            <mxPoint x="440" y="360" as="targetPoint" />
            <Array as="points">
              <mxPoint x="765" y="150" />
              <mxPoint x="610" y="150" />
              <mxPoint x="330" y="150" />
              <mxPoint x="100" y="150" />
            </Array>
          </mxGeometry>
        </mxCell>
        <mxCell id="IOTHJntcrpDSe6gjznaF-20" style="edgeStyle=orthogonalEdgeStyle;rounded=0;orthogonalLoop=1;jettySize=auto;html=1;exitX=1;exitY=0.5;exitDx=0;exitDy=0;entryX=0;entryY=0.5;entryDx=0;entryDy=0;shape=flexArrow;fillColor=#dae8fc;strokeColor=#000000;" edge="1" parent="1" source="IOTHJntcrpDSe6gjznaF-4" target="IOTHJntcrpDSe6gjznaF-6">
          <mxGeometry relative="1" as="geometry" />
        </mxCell>
        <mxCell id="IOTHJntcrpDSe6gjznaF-4" value="&lt;font size=&quot;1&quot;&gt;&lt;b style=&quot;font-size: 14px;&quot;&gt;Texturierung des Terrains&lt;/b&gt;&lt;/font&gt;" style="whiteSpace=wrap;html=1;rounded=1;fillColor=#dae8fc;strokeColor=#000000;" vertex="1" parent="1">
          <mxGeometry x="360" y="200" width="120" height="60" as="geometry" />
        </mxCell>
        <mxCell id="IOTHJntcrpDSe6gjznaF-23" value="" style="endArrow=none;html=1;rounded=0;dashed=1;strokeWidth=2;entryX=0.5;entryY=0;entryDx=0;entryDy=0;fillColor=#dae8fc;strokeColor=#000000;" edge="1" parent="1" target="IOTHJntcrpDSe6gjznaF-2">
          <mxGeometry width="50" height="50" relative="1" as="geometry">
            <mxPoint x="260" y="150" as="sourcePoint" />
            <mxPoint x="520" y="290" as="targetPoint" />
          </mxGeometry>
        </mxCell>
        <mxCell id="IOTHJntcrpDSe6gjznaF-24" value="" style="endArrow=none;html=1;rounded=0;dashed=1;strokeWidth=2;entryX=0.5;entryY=0;entryDx=0;entryDy=0;fillColor=#dae8fc;strokeColor=#000000;" edge="1" parent="1">
          <mxGeometry width="50" height="50" relative="1" as="geometry">
            <mxPoint x="419.5" y="150" as="sourcePoint" />
            <mxPoint x="419.5" y="200" as="targetPoint" />
          </mxGeometry>
        </mxCell>
        <mxCell id="IOTHJntcrpDSe6gjznaF-25" value="" style="endArrow=none;html=1;rounded=0;dashed=1;strokeWidth=2;entryX=0.5;entryY=0;entryDx=0;entryDy=0;fillColor=#dae8fc;strokeColor=#000000;" edge="1" parent="1" target="IOTHJntcrpDSe6gjznaF-6">
          <mxGeometry width="50" height="50" relative="1" as="geometry">
            <mxPoint x="585" y="150" as="sourcePoint" />
            <mxPoint x="579.5" y="200" as="targetPoint" />
          </mxGeometry>
        </mxCell>
        <mxCell id="IOTHJntcrpDSe6gjznaF-27" value="" style="endArrow=classic;html=1;rounded=0;exitX=0.5;exitY=1;exitDx=0;exitDy=0;entryX=0.5;entryY=1;entryDx=0;entryDy=0;strokeWidth=2;dashed=1;fillColor=#dae8fc;strokeColor=#000000;" edge="1" parent="1" source="IOTHJntcrpDSe6gjznaF-6" target="IOTHJntcrpDSe6gjznaF-2">
          <mxGeometry width="50" height="50" relative="1" as="geometry">
            <mxPoint x="750" y="510" as="sourcePoint" />
            <mxPoint x="110" y="510" as="targetPoint" />
            <Array as="points">
              <mxPoint x="585" y="320" />
              <mxPoint x="260" y="320" />
            </Array>
          </mxGeometry>
        </mxCell>
        <mxCell id="IOTHJntcrpDSe6gjznaF-29" value="" style="endArrow=none;html=1;rounded=0;dashed=1;strokeWidth=2;fillColor=#dae8fc;strokeColor=#000000;exitX=0.5;exitY=1;exitDx=0;exitDy=0;" edge="1" parent="1" source="IOTHJntcrpDSe6gjznaF-4">
          <mxGeometry width="50" height="50" relative="1" as="geometry">
            <mxPoint x="390" y="390" as="sourcePoint" />
            <mxPoint x="420" y="320" as="targetPoint" />
          </mxGeometry>
        </mxCell>
      </root>
    </mxGraphModel>
  </diagram>
</mxfile>
